<svg width="500" height="500" viewbox = "0 0 500 500"  xmlns="http://www.w3.org/2000/svg">
<!--<json>{
  "glyph": "0321,0220,0322,0336,0330,0332,0336,0331,0333,0333,0330,0332,0336,0331,0333,0337,0332,0204,0331,0331,0325,0204,0331,0331,0326,0204,0333,0335,0336,0334,0330,0336,0331,0337,0362,0203,0335,0203,0203,0203,0203,0203,0203,0203,0335,0203,0335,0203,0203,0203,0203,0203,0203,0203,0363,0335,0330,0330,0330,0330,0325,0362,0203,0335,0203,0203,0203,0203,0203,0203,0203,0335,0203,0335,0203,0203,0203,0203,0203,0203,0203,0363,0335,0330,0330,0330,0330,0322,0362,0203,0335,0203,0203,0203,0203,0203,0203,0203,0335,0203,0335,0203,0203,0203,0203,0203,0203,0203,0363,0335,",
  "x0": 250,
  "y0": 250,
  "unit": 225,
  "width": 500,
  "height": 500,
  "style": {
    "color0": "black",
    "fill0": "black",
    "line0": 5,
    "color1": "black",
    "fill1": "black",
    "line1": 25,
    "color2": "red",
    "fill2": "red",
    "line2": 1,
    "color3": "#FF7900",
    "fill3": "#FF7900",
    "line3": 1,
    "color4": "yellow",
    "fill4": "yellow",
    "line4": 1,
    "color5": "green",
    "fill5": "green",
    "line5": 1,
    "color6": "blue",
    "fill6": "blue",
    "line6": 1,
    "color7": "purple",
    "fill7": "purple",
    "line7": 1
  },
  "shapes": [
    "0220:0314,0336,0313,0333,0331,0331,0337,0337,0332,0362,0203,0336,0336,0333,0350,0334,0345,0335,0330,0335,0335,0337,0337,0203,0336,0336,0335,0333,0334,0334,0345,0335,0330,0335,0335,0337,0337,0203,0335,0336,0336,0333,0334,0334,0345,0335,0330,0335,0335,0337,0337,0203,0335,0336,0336,0333,0334,0334,0345,0333,0364,0335,0335,0335,0304,0337,0330,0333,0336,0333,0314,0337,0313,",
    "0221:0304,0334,0312,0336,0362,0203,0335,0306,0350,0335,0313,0337,0203,0335,0335,0335,0335,0203,0335,0335,0335,0335,0336,0203,0363,0335,0335,0335,0312,0337,0313,0304,0350,",
    "0222:0201,0336,0336,0221,0337,0337,0331,0335,",
    "0223:0321,0220,0210,0210,0210,0222,0222,0222,0222,0222,0222,0222,0222,",
    "01220:0333,0200,0336,0330,0332,0210,0220,0211,0333,0331,0337,",
    "01221:0333,0200,0336,0330,0332,0221,0331,0333,0337,",
    "01222:0333,0200,0336,0330,0332,0222,0331,0333,0337,",
    "01223:0333,0200,0336,0330,0332,0223,0331,0333,0337,",
    "01224:0333,0200,0336,0330,0332,0224,0331,0333,0337,",
    "01225:0333,0200,0336,0330,0332,0225,0331,0333,0337,",
    "01226:0333,0200,0336,0330,0332,0226,0331,0333,0337,",
    "01227:0333,0200,0336,0330,0332,0227,0331,0333,0337,",
    "01230:0333,0200,0336,0330,0332,0230,0331,0333,0337,",
    "01231:0333,0200,0336,0330,0332,0231,0331,0333,0337,",
    "01232:0333,0200,0336,0330,0332,0232,0331,0333,0337,",
    "01233:0333,0200,0336,0330,0332,0233,0331,0333,0337,",
    "01234:0333,0200,0336,0330,0332,0234,0331,0333,0337,",
    "01235:0333,0200,0336,0330,0332,0235,0331,0333,0337,",
    "01236:0333,0200,0336,0330,0332,0236,0331,0333,0337,",
    "01237:0333,0200,0336,0330,0332,0237,0331,0333,0337,",
    "0240:0220,0336,0331,0333,0336,0321,0335,0342,0335,0335,0342,0335,0330,0330,0332,0332,0337,0337,",
    "01240:0333,0200,0336,0330,0332,0210,0240,0211,0333,0331,0337,",
    "0241:0220,0336,0321,0343,0332,0350,0335,0336,0342,0334,0334,0342,0335,0304,0337,0333,0337,",
    "01241:0333,0200,0336,0332,0330,0210,0241,0211,0333,0331,0337,",
    "0242:0220,0321,0336,0343,0333,0336,0350,0335,0342,0334,0334,0342,0335,0337,0304,0332,0337,",
    "01242:0333,0200,0336,0330,0332,0210,0242,0211,0333,0331,0337,",
    "0243:0220,0336,0331,0332,0336,0321,0343,0332,0350,0334,0336,0342,0335,0335,0342,0337,0334,0334,0335,0304,0332,0330,0330,0337,0337,0333,",
    "01243:0333,0200,0336,0330,0332,0210,0243,0211,0333,0331,0337,",
    "0244:0220,0336,0331,0333,0336,0321,0343,0333,0350,0336,0335,0342,0334,0334,0342,0335,0337,0304,0333,0330,0330,0337,0337,0332,",
    "01244:0333,0200,0336,0330,0332,0210,0244,0211,0333,0331,0337,",
    "0245:0210,0332,0332,0362,0335,0203,0203,0203,0203,0334,0203,0363,0332,0332,0331,0211,",
    "01245:0333,0200,0336,0330,0332,0336,0245,0337,0333,0331,0337,",
    "0246:0210,0332,0332,0335,0306,0336,0330,0335,0335,0335,0321,0362,0203,0335,0335,0203,0364,0331,0350,0335,0337,0366,0333,0333,0333,0333,0334,0334,0334,0334,0367,0335,0336,0342,0334,0334,0342,0330,0330,0330,0330,0335,0335,0335,0304,0337,0211,",
    "01246:0333,0200,0336,0330,0332,0336,0246,",
    "0247:0330,0332,0336,0332,0336,0221,0333,0333,0333,0222,0333,0333,0333,0223,0333,0333,0333,0225,0333,0331,0331,0331,0332,0332,0332,0332,0332,0332,0332,0332,0332,0332,0332,0332,0333,0333,0226,0331,0331,0331,0333,0333,0333,0333,0333,0333,0333,0333,0333,0333,0333,0333,0333,0330,0333,0330,0330,0333,0330,0331,0332,0332,0332,0332,0332,0332,0332,0332,0332,0332,0332,0332,0227,0333,0333,0333,0230,0333,0331,0331,0331,0331,0332,0332,0332,0330,0332,0332,0332,0332,0332,0332,0333,0333,0231,0333,0333,0333,0232,0331,0333,0330,0333,0333,0233,0333,0333,0333,0234,0330,0330,0332,0330,0332,0332,0337,0337,",
    "01247:0333,0200,0336,0330,0332,0220,0336,0247,0337,0331,0333,0337,"
  ]
}</json>-->	<path d = "M25 400 L25 100 M25.000000000000014 99.99999999999993           A75 75 0 0 1 100.00000000000001 24.999999999999943L400 25 M400 24.999999999999943           A75 75 0 0 1 475 99.99999999999994L475 400 M475 399.99999999999994           A75 75 0 0 1 400 474.99999999999994L100 475 M99.99999999999999 475           A75 75 0 0 1 24.999999999999986 400" stroke = "#000000" stroke-width = "25" fill = "none" />	<path d = "M166 166 L166 109 L109 109 L109 166 L166 166 Z" stroke = "#ff0000" stroke-width = "1" fill = "#ff0000" />	<path d = "M166 278 L166 222 L109 222 L109 278 L166 278 Z" stroke = "#008000" stroke-width = "1" fill = "#008000" />	<path d = "M166 391 L166 334 L109 334 L109 391 L166 391 Z" stroke = "#0000ff" stroke-width = "1" fill = "#0000ff" />	<path d = "M222 377 L222 348 L250 348 L278 348 L306 348 L334 348 L362 348 L391 348 L419 348 L419 377 L391 377 L362 377 L334 377 L306 377 L278 377 L250 377 L222 377 Z" stroke = "#0000ff" stroke-width = "1" fill = "#0000ff" />	<path d = "M222 264 L222 236 L250 236 L278 236 L306 236 L334 236 L362 236 L391 236 L419 236 L419 264 L391 264 L362 264 L334 264 L306 264 L278 264 L250 264 L222 264 Z" stroke = "#008000" stroke-width = "1" fill = "#008000" />	<path d = "M222 152 L222 123 L250 123 L278 123 L306 123 L334 123 L362 123 L391 123 L419 123 L419 152 L391 152 L362 152 L334 152 L306 152 L278 152 L250 152 L222 152 Z" stroke = "#ff0000" stroke-width = "1" fill = "#ff0000" /></svg>