<svg width="700" height="500" viewbox = "0 0 700 500"  xmlns="http://www.w3.org/2000/svg">
<!--<json>{
  "glyph": "0335,0334,0336,0331,0331,0332,0337,0336,0332,0332,0332,0335,0336,0366,0337,0337,0332,0336,0336,0367,0335,0335,0366,0337,0337,0332,0336,0336,0367,0335,0335,0337,0337,0337,0201,0201,0334,0334,0336,0333,0337,0201,0201,0336,0336,0332,0201,0226,0335,0335,0330,0334,0333,0333,0333,0333,0333,0333,0333,0333,0330,0335,0336,0366,0333,0333,0333,0333,0367,0334,0330,0330,0333,0336,0332,0336,0333,0337,0335,0342,0334,0336,0333,0337,0337,0337,0335,0201,0201,0337,0224,0334,0335,0362,0203,0335,0336,0203,0364,0337,0222,0336,0201,0337,0335,0335,0331,0227,0331,0225,0330,0332,0330,0330,0335,0335,0221,0335,0335,0225,",
  "x0": 281.7768595041322,
  "y0": 103.20500000000001,
  "unit": 78.86112738331323,
  "width": 700,
  "height": 500,
  "style": {
    "color0": "black",
    "fill0": "black",
    "line0": 5,
    "color1": "black",
    "fill1": "black",
    "line1": 25,
    "color2": "red",
    "fill2": "red",
    "line2": 1,
    "color3": "#FF7900",
    "fill3": "#FF7900",
    "line3": 1,
    "color4": "yellow",
    "fill4": "yellow",
    "line4": 1,
    "color5": "green",
    "fill5": "green",
    "line5": 1,
    "color6": "blue",
    "fill6": "blue",
    "line6": 1,
    "color7": "purple",
    "fill7": "purple",
    "line7": 1
  },
  "shapes": [
    "0220:0313,0336,0306,0334,0336,0336,0362,0335,0203,0334,0203,0335,0335,0203,0203,0334,0334,0203,0203,0335,0335,0203,0203,0334,0334,0203,0203,0335,0335,0203,0203,0334,0334,0203,0335,0203,0364,0337,0337,0337,0304,",
    "0221:0336,0330,0336,0336,0331,0337,0333,0337,0334,0342,0336,0333,0337,0342,0336,0330,0335,0330,0336,0330,0337,0337,0337,0331,0336,0336,0201,0336,0201,0330,0330,0201,0337,0201,0337,0337,",
    "0222:0313,0336,0336,0230,0230,0230,0230,0337,0337,",
    "0223:0336,0336,0201,0330,0341,0333,0336,0336,0350,0335,0331,0337,0342,0336,0330,0335,0334,0334,0334,0331,0337,0342,0336,0330,0335,0304,0337,0337,0337,0332,0336,0336,0336,0350,0335,0331,0337,0342,0336,0330,0334,0334,0331,0337,0342,0336,0330,0335,0304,0337,0337,0333,0330,0201,0337,0337,",
    "0224:0336,0336,0336,0336,0347,0337,0337,0337,0337,",
    "0225:0335,0335,0336,0336,0201,0334,0331,0337,0362,0203,0335,0350,0335,0310,0336,0203,0335,0335,0203,0354,0335,0335,0335,0336,0330,0334,0334,0304,0313,0330,0337,0337,",
    "0226:0336,0201,0336,0336,0330,0341,0331,0337,0331,0331,0337,0337,",
    "0227:0222,0336,0331,0336,0333,0336,0332,0337,0337,0306,0335,0331,0337,0342,0330,0335,0335,0350,0335,0336,0336,0362,0203,0335,0335,0335,0335,0203,0335,0335,0335,0335,0203,0363,0334,0337,0331,0334,0334,0304,0336,0336,0332,0337,0337,0330,0337,",
    "0230:0313,0336,0366,0330,0333,0333,0336,0331,0337,0367,0335,0335,0366,0331,0331,0333,0333,0336,0330,0337,0367,0335,0335,0337,",
    "01220:0333,0200,0336,0332,0337,0220,0331,0336,0333,0337,",
    "01221:0333,0200,0336,0332,0337,0221,0331,0336,0333,0337,",
    "01222:0333,0200,0336,0332,0337,0222,0331,0336,0333,0337,",
    "01223:0333,0200,0336,0332,0337,0223,0331,0336,0333,0337,",
    "01224:0333,0200,0336,0330,0332,0224,0331,0333,0337,",
    "01225:0333,0200,0336,0330,0332,0225,0331,0333,0337,",
    "01226:0333,0200,0336,0330,0332,0226,0331,0333,0337,",
    "01227:0333,0200,0336,0332,0337,0227,0336,0331,0331,0333,0337,",
    "01230:0333,0200,0336,0332,0337,0336,0336,0330,0332,0337,0230,0331,0333,0336,0331,0333,0337,0337,",
    "01231:0333,0200,0336,0330,0332,0231,0331,0333,0337,",
    "01232:0333,0200,0336,0330,0332,0232,0331,0333,0337,",
    "01233:0333,0200,0336,0330,0332,0233,0331,0333,0337,",
    "01234:0333,0200,0336,0330,0332,0234,0331,0333,0337,",
    "01235:0333,0200,0336,0330,0332,0235,0331,0333,0337,",
    "01236:0333,0200,0336,0330,0332,0236,0331,0333,0337,",
    "01237:0333,0200,0336,0330,0332,0237,0331,0333,0337,",
    "0240:0220,0336,0331,0333,0336,0321,0335,0342,0335,0335,0342,0335,0330,0330,0332,0332,0337,0337,",
    "01240:0333,0200,0336,0330,0332,0210,0240,0211,0333,0331,0337,",
    "0241:0220,0336,0321,0343,0332,0350,0335,0336,0342,0334,0334,0342,0335,0304,0337,0333,0337,",
    "01241:0333,0200,0336,0332,0330,0210,0241,0211,0333,0331,0337,",
    "0242:0220,0321,0336,0343,0333,0336,0350,0335,0342,0334,0334,0342,0335,0337,0304,0332,0337,",
    "01242:0333,0200,0336,0330,0332,0210,0242,0211,0333,0331,0337,",
    "0243:0220,0336,0331,0332,0336,0321,0343,0332,0350,0334,0336,0342,0335,0335,0342,0337,0334,0334,0335,0304,0332,0330,0330,0337,0337,0333,",
    "01243:0333,0200,0336,0330,0332,0210,0243,0211,0333,0331,0337,",
    "0244:0220,0336,0331,0333,0336,0321,0343,0333,0350,0336,0335,0342,0334,0334,0342,0335,0337,0304,0333,0330,0330,0337,0337,0332,",
    "01244:0333,0200,0336,0330,0332,0210,0244,0211,0333,0331,0337,",
    "0245:0210,0332,0332,0362,0335,0203,0203,0203,0203,0334,0203,0363,0332,0332,0331,0211,",
    "01245:0333,0200,0336,0330,0332,0336,0245,0337,0333,0331,0337,",
    "0246:0210,0332,0332,0335,0306,0336,0330,0335,0335,0335,0321,0362,0203,0335,0335,0203,0364,0331,0350,0335,0337,0366,0333,0333,0333,0333,0334,0334,0334,0334,0367,0335,0336,0342,0334,0334,0342,0330,0330,0330,0330,0335,0335,0335,0304,0337,0211,",
    "01246:0333,0200,0336,0330,0332,0336,0246,",
    "0247:0330,0332,0336,0332,0336,0221,0333,0333,0333,0222,0333,0333,0333,0223,0333,0333,0333,0225,0333,0331,0331,0331,0332,0332,0332,0332,0332,0332,0332,0332,0332,0332,0332,0332,0333,0333,0226,0331,0331,0331,0333,0333,0333,0333,0333,0333,0333,0333,0333,0333,0333,0333,0333,0330,0333,0330,0330,0333,0330,0331,0332,0332,0332,0332,0332,0332,0332,0332,0332,0332,0332,0332,0227,0333,0333,0333,0230,0333,0331,0331,0331,0331,0332,0332,0332,0330,0332,0332,0332,0332,0332,0332,0333,0333,0231,0333,0333,0333,0232,0331,0333,0330,0333,0333,0233,0333,0333,0333,0234,0330,0330,0332,0330,0332,0332,0337,0337,",
    "01247:0333,0200,0336,0330,0332,0220,0336,0247,0337,0331,0333,0337,"
  ]
}</json>--><path    d = "M124,182 C144,182 144,103 124,103" fill = "none" stroke-width = "5" stroke = "#000000" /><path    d = "M124,103 C104,103 104,182 124,182" fill = "none" stroke-width = "5" stroke = "#000000" />    <line x1="124" y1="182" x2="282" y2="182" style="stroke:#000000;stroke-width:5" />
    <line x1="282" y1="182" x2="439" y2="182" style="stroke:#000000;stroke-width:5" />
    <line x1="439" y1="103" x2="282" y2="103" style="stroke:#000000;stroke-width:5" />
    <line x1="282" y1="103" x2="124" y2="103" style="stroke:#000000;stroke-width:5" />
    <line x1="124" y1="143" x2="85" y2="143" style="stroke:#000000;stroke-width:5" />
    <line x1="85" y1="143" x2="65" y2="143" style="stroke:#000000;stroke-width:5" />
<circle cx="60" cy = "143" r = "4.928820461457077" stroke = "#000000" stroke-width = "5" fill = "none" />
<path    d = "M439,103 C459,103 459,182 439,182" fill = "none" stroke-width = "5" stroke = "#000000" />    <line x1="454" y1="143" x2="464" y2="143" style="stroke:#000000;stroke-width:5" />
    <line x1="459" y1="143" x2="499" y2="143" style="stroke:#000000;stroke-width:5" />
    <line x1="499" y1="143" x2="538" y2="143" style="stroke:#000000;stroke-width:5" />
    <circle cx="538" cy = "143" r = "4.928820461457077" stroke = "#000000" stroke-width = "5" fill = "#000000" />
	<path d = "M538 143 L617 143 L617 182 " stroke = "#000000" stroke-width = "5" fill = "none" /><path    d = "M617,182 C617,192 597,197 597,187" fill = "none" stroke-width = "5" stroke = "#000000" /><path    d = "M597,187 C597,177 617,192 617,202" fill = "none" stroke-width = "5" stroke = "#000000" /><path    d = "M617,202 C617,212 597,217 597,207" fill = "none" stroke-width = "5" stroke = "#000000" /><path    d = "M597,207 C597,197 617,212 617,221" fill = "none" stroke-width = "5" stroke = "#000000" /><path    d = "M617,221 C617,231 597,236 597,226" fill = "none" stroke-width = "5" stroke = "#000000" /><path    d = "M597,226 C597,217 617,231 617,241" fill = "none" stroke-width = "5" stroke = "#000000" /><path    d = "M617,241 C617,251 597,256 597,246" fill = "none" stroke-width = "5" stroke = "#000000" /><path    d = "M597,246 C597,236 617,251 617,261" fill = "none" stroke-width = "5" stroke = "#000000" />    <line x1="617" y1="261" x2="617" y2="300" style="stroke:#000000;stroke-width:5" />
<path    d = "M617,379 C617,369 637,364 637,374" fill = "none" stroke-width = "5" stroke = "#000000" /><path    d = "M637,374 C637,384 617,369 617,360" fill = "none" stroke-width = "5" stroke = "#000000" /><path    d = "M617,360 C617,350 637,345 637,355" fill = "none" stroke-width = "5" stroke = "#000000" /><path    d = "M637,355 C637,364 617,350 617,340" fill = "none" stroke-width = "5" stroke = "#000000" /><path    d = "M617,340 C617,330 637,325 637,335" fill = "none" stroke-width = "5" stroke = "#000000" /><path    d = "M637,335 C637,345 617,330 617,320" fill = "none" stroke-width = "5" stroke = "#000000" /><path    d = "M617,320 C617,310 637,305 637,315" fill = "none" stroke-width = "5" stroke = "#000000" /><path    d = "M637,315 C637,325 617,310 617,300" fill = "none" stroke-width = "5" stroke = "#000000" />    <line x1="593" y1="360" x2="661" y2="320" style="stroke:#000000;stroke-width:5" />
	<path d = "M661 320 L651 337 L641 320 L661 320 Z" stroke = "#000000" stroke-width = "5" fill = "#000000" />    <line x1="617" y1="379" x2="617" y2="399" style="stroke:#000000;stroke-width:5" />
	<path d = "M597 399 L637 399 L617 419 L597 399 Z" stroke = "#000000" stroke-width = "5" fill = "none" />    <line x1="518" y1="172" x2="558" y2="172" style="stroke:#000000;stroke-width:5" />
    <line x1="518" y1="192" x2="558" y2="192" style="stroke:#000000;stroke-width:5" />
    <line x1="538" y1="143" x2="538" y2="162" style="stroke:#000000;stroke-width:5" />
    <line x1="538" y1="162" x2="538" y2="172" style="stroke:#000000;stroke-width:5" />
    <line x1="538" y1="192" x2="538" y2="202" style="stroke:#000000;stroke-width:5" />
    <line x1="538" y1="202" x2="538" y2="221" style="stroke:#000000;stroke-width:5" />
    <line x1="538" y1="221" x2="538" y2="241" style="stroke:#000000;stroke-width:5" />
	<path d = "M518 241 L558 241 L538 261 L518 241 Z" stroke = "#000000" stroke-width = "5" fill = "none" /></svg>