<svg width="700" height="500" viewbox = "0 0 700 500"  xmlns="http://www.w3.org/2000/svg">
<!--<json>{
  "glyph": "0231,0335,0336,0362,0203,0335,0203,0364,0337,0221,0224,0221,0201,0331,0331,0334,0362,0203,0335,0336,0203,0364,0337,0222,0336,0201,0337,0227,0335,0335,0225,0330,0332,0225,0330,0332,0332,",
  "x0": 287.9789631855747,
  "y0": 66.55000000000001,
  "unit": 71.6919339848302,
  "width": 700,
  "height": 500,
  "style": {
    "color0": "black",
    "fill0": "black",
    "line0": 5,
    "color1": "black",
    "fill1": "black",
    "line1": 25,
    "color2": "red",
    "fill2": "red",
    "line2": 1,
    "color3": "#FF7900",
    "fill3": "#FF7900",
    "line3": 1,
    "color4": "yellow",
    "fill4": "yellow",
    "line4": 1,
    "color5": "green",
    "fill5": "green",
    "line5": 1,
    "color6": "blue",
    "fill6": "blue",
    "line6": 1,
    "color7": "purple",
    "fill7": "purple",
    "line7": 1
  },
  "shapes": [
    "0220:0313,0336,0306,0334,0336,0336,0362,0335,0203,0334,0203,0335,0335,0203,0203,0334,0334,0203,0203,0335,0335,0203,0203,0334,0334,0203,0203,0335,0335,0203,0203,0334,0334,0203,0335,0203,0364,0337,0337,0337,0304,",
    "0221:0336,0330,0336,0336,0331,0337,0333,0337,0334,0342,0336,0333,0337,0342,0336,0330,0335,0330,0336,0330,0337,0337,0337,0331,0336,0336,0201,0336,0201,0330,0330,0201,0337,0201,0337,0337,",
    "0222:0313,0336,0336,0230,0230,0230,0230,0337,0337,",
    "0223:0336,0336,0201,0330,0341,0333,0336,0336,0350,0335,0331,0337,0342,0336,0330,0335,0334,0334,0334,0331,0337,0342,0336,0330,0335,0304,0337,0337,0337,0332,0336,0336,0336,0350,0335,0331,0337,0342,0336,0330,0334,0334,0331,0337,0342,0336,0330,0335,0304,0337,0337,0333,0330,0201,0337,0337,",
    "0224:0336,0336,0336,0336,0347,0337,0337,0337,0337,",
    "0225:0335,0335,0336,0336,0201,0334,0331,0337,0362,0203,0335,0350,0335,0310,0336,0203,0335,0335,0203,0354,0335,0335,0335,0336,0330,0334,0334,0304,0313,0330,0337,0337,",
    "0226:0336,0201,0336,0336,0330,0341,0331,0337,0331,0331,0337,0337,",
    "0227:0222,0336,0331,0336,0333,0336,0332,0337,0337,0306,0335,0331,0337,0342,0330,0335,0335,0350,0335,0336,0336,0362,0203,0335,0335,0335,0335,0203,0335,0335,0335,0335,0203,0363,0334,0337,0331,0334,0334,0304,0336,0336,0332,0337,0337,0330,0337,",
    "0230:0313,0336,0366,0330,0333,0333,0336,0331,0337,0367,0335,0335,0366,0331,0331,0333,0333,0336,0330,0337,0367,0335,0335,0337,",
    "0231:0335,0334,0336,0331,0331,0332,0337,0336,0332,0332,0332,0335,0336,0366,0337,0337,0332,0336,0336,0367,0335,0335,0366,0337,0337,0332,0336,0336,0367,0335,0335,0337,0337,0337,0201,0201,0334,0334,0336,0333,0337,0201,0201,0336,0336,0332,0201,0226,0335,0335,0330,0334,0333,0333,0333,0333,0333,0333,0333,0333,0330,0335,0336,0366,0333,0333,0333,0333,0367,0334,0330,0330,0337,0333,0334,0336,0201,0336,0336,0342,0337,0337,0331,0335,0337,0337,",
    "01220:0333,0200,0336,0332,0337,0220,0331,0336,0333,0337,",
    "01221:0333,0200,0336,0332,0337,0221,0331,0336,0333,0337,",
    "01222:0333,0200,0336,0332,0337,0222,0331,0336,0333,0337,",
    "01223:0333,0200,0336,0332,0337,0223,0331,0336,0333,0337,",
    "01224:0333,0200,0336,0330,0332,0224,0331,0333,0337,",
    "01225:0333,0200,0336,0330,0332,0225,0331,0333,0337,",
    "01226:0333,0200,0336,0330,0332,0226,0331,0333,0337,",
    "01227:0333,0200,0336,0332,0337,0227,0336,0331,0331,0333,0337,",
    "01230:0333,0200,0336,0332,0337,0336,0336,0330,0332,0337,0230,0331,0333,0336,0331,0333,0337,0337,",
    "01231:0333,0200,0336,0330,0332,0336,0336,0231,0331,0331,0331,0333,0336,0331,0333,0337,0337,0337,0337,",
    "01232:0333,0200,0336,0330,0332,0232,0331,0333,0337,",
    "01233:0333,0200,0336,0330,0332,0233,0331,0333,0337,",
    "01234:0333,0200,0336,0330,0332,0234,0331,0333,0337,",
    "01235:0333,0200,0336,0330,0332,0235,0331,0333,0337,",
    "01236:0333,0200,0336,0330,0332,0236,0331,0333,0337,",
    "01237:0333,0200,0336,0330,0332,0237,0331,0333,0337,",
    "0240:0220,0336,0331,0333,0336,0321,0335,0342,0335,0335,0342,0335,0330,0330,0332,0332,0337,0337,",
    "01240:0333,0200,0336,0330,0332,0210,0240,0211,0333,0331,0337,",
    "0241:0220,0336,0321,0343,0332,0350,0335,0336,0342,0334,0334,0342,0335,0304,0337,0333,0337,",
    "01241:0333,0200,0336,0332,0330,0210,0241,0211,0333,0331,0337,",
    "0242:0220,0321,0336,0343,0333,0336,0350,0335,0342,0334,0334,0342,0335,0337,0304,0332,0337,",
    "01242:0333,0200,0336,0330,0332,0210,0242,0211,0333,0331,0337,",
    "0243:0220,0336,0331,0332,0336,0321,0343,0332,0350,0334,0336,0342,0335,0335,0342,0337,0334,0334,0335,0304,0332,0330,0330,0337,0337,0333,",
    "01243:0333,0200,0336,0330,0332,0210,0243,0211,0333,0331,0337,",
    "0244:0220,0336,0331,0333,0336,0321,0343,0333,0350,0336,0335,0342,0334,0334,0342,0335,0337,0304,0333,0330,0330,0337,0337,0332,",
    "01244:0333,0200,0336,0330,0332,0210,0244,0211,0333,0331,0337,",
    "0245:0210,0332,0332,0362,0335,0203,0203,0203,0203,0334,0203,0363,0332,0332,0331,0211,",
    "01245:0333,0200,0336,0330,0332,0336,0245,0337,0333,0331,0337,",
    "0246:0210,0332,0332,0335,0306,0336,0330,0335,0335,0335,0321,0362,0203,0335,0335,0203,0364,0331,0350,0335,0337,0366,0333,0333,0333,0333,0334,0334,0334,0334,0367,0335,0336,0342,0334,0334,0342,0330,0330,0330,0330,0335,0335,0335,0304,0337,0211,",
    "01246:0333,0200,0336,0330,0332,0336,0246,",
    "0247:0330,0332,0336,0332,0336,0221,0333,0333,0333,0222,0333,0333,0333,0223,0333,0333,0333,0225,0333,0331,0331,0331,0332,0332,0332,0332,0332,0332,0332,0332,0332,0332,0332,0332,0333,0333,0226,0331,0331,0331,0333,0333,0333,0333,0333,0333,0333,0333,0333,0333,0333,0333,0333,0330,0333,0330,0330,0333,0330,0331,0332,0332,0332,0332,0332,0332,0332,0332,0332,0332,0332,0332,0227,0333,0333,0333,0230,0333,0331,0331,0331,0331,0332,0332,0332,0330,0332,0332,0332,0332,0332,0332,0333,0333,0231,0333,0333,0333,0232,0331,0333,0330,0333,0333,0233,0333,0333,0333,0234,0330,0330,0332,0330,0332,0332,0337,0337,",
    "01247:0333,0200,0336,0330,0332,0220,0336,0247,0337,0331,0333,0337,"
  ]
}</json>--><path    d = "M145,138 C163,138 163,67 145,67" fill = "none" stroke-width = "5" stroke = "#000000" /><path    d = "M145,67 C127,67 127,138 145,138" fill = "none" stroke-width = "5" stroke = "#000000" />    <line x1="145" y1="138" x2="288" y2="138" style="stroke:#000000;stroke-width:5" />
    <line x1="288" y1="138" x2="431" y2="138" style="stroke:#000000;stroke-width:5" />
    <line x1="431" y1="67" x2="288" y2="67" style="stroke:#000000;stroke-width:5" />
    <line x1="288" y1="67" x2="145" y2="67" style="stroke:#000000;stroke-width:5" />
    <line x1="145" y1="102" x2="109" y2="102" style="stroke:#000000;stroke-width:5" />
    <line x1="109" y1="102" x2="91" y2="102" style="stroke:#000000;stroke-width:5" />
<circle cx="86" cy = "102" r = "4.4807458740518875" stroke = "#000000" stroke-width = "5" fill = "none" />
<path    d = "M431,67 C449,67 449,138 431,138" fill = "none" stroke-width = "5" stroke = "#000000" />    <line x1="467" y1="102" x2="449" y2="102" style="stroke:#000000;stroke-width:5" />
    <line x1="449" y1="102" x2="445" y2="102" style="stroke:#000000;stroke-width:5" />
	<path d = "M467 102 L503 102 L503 138 " stroke = "#000000" stroke-width = "5" fill = "none" />    <line x1="485" y1="165" x2="521" y2="165" style="stroke:#000000;stroke-width:5" />
    <line x1="485" y1="183" x2="521" y2="183" style="stroke:#000000;stroke-width:5" />
    <line x1="503" y1="138" x2="503" y2="156" style="stroke:#000000;stroke-width:5" />
    <line x1="503" y1="156" x2="503" y2="165" style="stroke:#000000;stroke-width:5" />
    <line x1="503" y1="183" x2="503" y2="192" style="stroke:#000000;stroke-width:5" />
    <line x1="503" y1="192" x2="503" y2="210" style="stroke:#000000;stroke-width:5" />
    <circle cx="503" cy = "210" r = "4.4807458740518875" stroke = "#000000" stroke-width = "5" fill = "#000000" />
    <line x1="485" y1="237" x2="521" y2="237" style="stroke:#000000;stroke-width:5" />
    <line x1="485" y1="255" x2="521" y2="255" style="stroke:#000000;stroke-width:5" />
    <line x1="503" y1="210" x2="503" y2="228" style="stroke:#000000;stroke-width:5" />
    <line x1="503" y1="228" x2="503" y2="237" style="stroke:#000000;stroke-width:5" />
    <line x1="503" y1="255" x2="503" y2="264" style="stroke:#000000;stroke-width:5" />
    <line x1="503" y1="264" x2="503" y2="282" style="stroke:#000000;stroke-width:5" />
    <line x1="503" y1="282" x2="503" y2="353" style="stroke:#000000;stroke-width:5" />
	<path d = "M503 210 L575 210 L575 246 " stroke = "#000000" stroke-width = "5" fill = "none" /><path    d = "M575,246 C575,255 557,259 557,250" fill = "none" stroke-width = "5" stroke = "#000000" /><path    d = "M557,250 C557,241 575,255 575,264" fill = "none" stroke-width = "5" stroke = "#000000" /><path    d = "M575,264 C575,273 557,277 557,268" fill = "none" stroke-width = "5" stroke = "#000000" /><path    d = "M557,268 C557,259 575,273 575,282" fill = "none" stroke-width = "5" stroke = "#000000" /><path    d = "M575,282 C575,291 557,295 557,286" fill = "none" stroke-width = "5" stroke = "#000000" /><path    d = "M557,286 C557,277 575,291 575,300" fill = "none" stroke-width = "5" stroke = "#000000" /><path    d = "M575,300 C575,309 557,313 557,304" fill = "none" stroke-width = "5" stroke = "#000000" /><path    d = "M557,304 C557,295 575,309 575,317" fill = "none" stroke-width = "5" stroke = "#000000" />    <line x1="575" y1="317" x2="575" y2="353" style="stroke:#000000;stroke-width:5" />
<path    d = "M575,353 C575,362 557,367 557,358" fill = "none" stroke-width = "5" stroke = "#000000" /><path    d = "M557,358 C557,349 575,362 575,371" fill = "none" stroke-width = "5" stroke = "#000000" /><path    d = "M575,371 C575,380 557,385 557,376" fill = "none" stroke-width = "5" stroke = "#000000" /><path    d = "M557,376 C557,367 575,380 575,389" fill = "none" stroke-width = "5" stroke = "#000000" /><path    d = "M575,389 C575,398 557,403 557,394" fill = "none" stroke-width = "5" stroke = "#000000" /><path    d = "M557,394 C557,385 575,398 575,407" fill = "none" stroke-width = "5" stroke = "#000000" /><path    d = "M575,407 C575,416 557,421 557,412" fill = "none" stroke-width = "5" stroke = "#000000" /><path    d = "M557,412 C557,403 575,416 575,425" fill = "none" stroke-width = "5" stroke = "#000000" />    <line x1="597" y1="371" x2="535" y2="407" style="stroke:#000000;stroke-width:5" />
	<path d = "M535 407 L544 392 L553 407 L535 407 Z" stroke = "#000000" stroke-width = "5" fill = "#000000" />    <line x1="575" y1="425" x2="575" y2="443" style="stroke:#000000;stroke-width:5" />
	<path d = "M557 443 L593 443 L575 461 L557 443 Z" stroke = "#000000" stroke-width = "5" fill = "none" />    <line x1="503" y1="353" x2="503" y2="371" style="stroke:#000000;stroke-width:5" />
	<path d = "M485 371 L521 371 L503 389 L485 371 Z" stroke = "#000000" stroke-width = "5" fill = "none" /></svg>