<svg width="700" height="500" viewbox = "0 0 700 500"  xmlns="http://www.w3.org/2000/svg">
<!--<json>{
  "glyph": "0231,0335,0336,0362,0203,0335,0203,0364,0337,0221,0224,0336,0201,0337,0221,0331,0331,0336,0330,0334,0337,0336,0201,0337,0222,0336,0362,0203,0335,0203,0364,0337,0227,0336,0201,0335,0335,0337,0225,0332,0332,0225,0336,0201,0337,0330,0330,0333,0330,0333,0332,0332,0332,0332,0332,0332,0331,0336,0331,0337,0336,0330,0336,0331,0337,0114,0365,0333,0333,0333,0333,0333,0333,0333,0333,0330,0336,0333,0337,0103,0365,0111,0116,0336,0333,0333,0336,0331,0337,0365,0331,0331,0331,0331,0332,0332,0333,0333,0331,0331,0337,0114,0365,0333,0333,0333,0331,0114,0365,0330,0330,0330,0332,0332,0331,0331,0332,0332,0331,0332,0332,0103,0365,0336,0333,0331,0333,0336,0330,0337,060,0365,0333,0333,0333,0333,0333,0333,0333,0333,0333,0333,0333,0336,0333,0337,0112,0365,0330,0330,0332,0332,0332,0332,0332,0332,060,0365,0330,0330,0330,0330,0333,0330,0333,",
  "x0": 242.52441773102925,
  "y0": 112.00454545454545,
  "unit": 71.6919339848302,
  "width": 700,
  "height": 500,
  "style": {
    "color0": "black",
    "fill0": "black",
    "line0": 5,
    "color1": "black",
    "fill1": "black",
    "line1": 25,
    "color2": "red",
    "fill2": "red",
    "line2": 1,
    "color3": "#FF7900",
    "fill3": "#FF7900",
    "line3": 1,
    "color4": "yellow",
    "fill4": "yellow",
    "line4": 1,
    "color5": "green",
    "fill5": "green",
    "line5": 1,
    "color6": "blue",
    "fill6": "blue",
    "line6": 1,
    "color7": "purple",
    "fill7": "purple",
    "line7": 1
  },
  "shapes": [
    "0220:0313,0336,0306,0334,0336,0336,0362,0335,0203,0334,0203,0335,0335,0203,0203,0334,0334,0203,0203,0335,0335,0203,0203,0334,0334,0203,0203,0335,0335,0203,0203,0334,0334,0203,0335,0203,0364,0337,0337,0337,0304,",
    "0221:0336,0330,0336,0336,0331,0337,0333,0337,0334,0342,0336,0333,0337,0342,0336,0330,0335,0330,0336,0330,0337,0337,0337,0331,0336,0336,0201,0336,0201,0330,0330,0201,0337,0201,0337,0337,",
    "0222:0313,0336,0336,0230,0230,0230,0230,0337,0337,",
    "0223:0336,0336,0201,0330,0341,0333,0336,0336,0350,0335,0331,0337,0342,0336,0330,0335,0334,0334,0334,0331,0337,0342,0336,0330,0335,0304,0337,0337,0337,0332,0336,0336,0336,0350,0335,0331,0337,0342,0336,0330,0334,0334,0331,0337,0342,0336,0330,0335,0304,0337,0337,0333,0330,0201,0337,0337,",
    "0224:0336,0336,0336,0336,0347,0337,0337,0337,0337,",
    "0225:0335,0335,0336,0336,0201,0334,0331,0337,0362,0203,0335,0350,0335,0310,0336,0203,0335,0335,0203,0354,0335,0335,0335,0336,0330,0334,0334,0304,0313,0330,0337,0337,",
    "0226:0336,0201,0336,0336,0330,0341,0331,0337,0331,0331,0337,0337,",
    "0227:0222,0336,0331,0336,0333,0336,0332,0337,0337,0306,0335,0331,0337,0342,0330,0335,0335,0350,0335,0336,0336,0362,0203,0335,0335,0335,0335,0203,0335,0335,0335,0335,0203,0363,0334,0337,0331,0334,0334,0304,0336,0336,0332,0337,0337,0330,0337,",
    "0230:0313,0336,0366,0330,0333,0333,0336,0331,0337,0367,0335,0335,0366,0331,0331,0333,0333,0336,0330,0337,0367,0335,0335,0337,",
    "0231:0335,0334,0336,0331,0331,0332,0337,0336,0332,0332,0332,0335,0336,0366,0337,0337,0332,0336,0336,0367,0335,0335,0366,0337,0337,0332,0336,0336,0367,0335,0335,0337,0337,0337,0201,0201,0334,0334,0336,0333,0337,0201,0201,0336,0336,0332,0201,0226,0335,0335,0330,0334,0333,0333,0333,0333,0333,0333,0333,0333,0330,0335,0336,0366,0333,0333,0333,0333,0367,0334,0330,0330,0337,0333,0334,0336,0201,0336,0336,0342,0337,0337,0331,0335,0337,0337,",
    "01220:0333,0200,0336,0332,0337,0220,0331,0336,0333,0337,",
    "01221:0333,0200,0336,0332,0337,0221,0331,0336,0333,0337,",
    "01222:0333,0200,0336,0332,0337,0222,0331,0336,0333,0337,",
    "01223:0333,0200,0336,0332,0337,0223,0331,0336,0333,0337,",
    "01224:0333,0200,0336,0330,0332,0224,0331,0333,0337,",
    "01225:0333,0200,0336,0330,0332,0225,0331,0333,0337,",
    "01226:0333,0200,0336,0330,0332,0226,0331,0333,0337,",
    "01227:0333,0200,0336,0332,0337,0227,0336,0331,0331,0333,0337,",
    "01230:0333,0200,0336,0332,0337,0336,0336,0330,0332,0337,0230,0331,0333,0336,0331,0333,0337,0337,",
    "01231:0333,0200,0336,0330,0332,0336,0336,0231,0331,0331,0331,0333,0336,0331,0333,0337,0337,0337,0337,",
    "01232:0333,0200,0336,0330,0332,0232,0331,0333,0337,",
    "01233:0333,0200,0336,0330,0332,0233,0331,0333,0337,",
    "01234:0333,0200,0336,0330,0332,0234,0331,0333,0337,",
    "01235:0333,0200,0336,0330,0332,0235,0331,0333,0337,",
    "01236:0333,0200,0336,0330,0332,0236,0331,0333,0337,",
    "01237:0333,0200,0336,0330,0332,0237,0331,0333,0337,",
    "0240:0220,0336,0331,0333,0336,0321,0335,0342,0335,0335,0342,0335,0330,0330,0332,0332,0337,0337,",
    "01240:0333,0200,0336,0330,0332,0210,0240,0211,0333,0331,0337,",
    "0241:0220,0336,0321,0343,0332,0350,0335,0336,0342,0334,0334,0342,0335,0304,0337,0333,0337,",
    "01241:0333,0200,0336,0332,0330,0210,0241,0211,0333,0331,0337,",
    "0242:0220,0321,0336,0343,0333,0336,0350,0335,0342,0334,0334,0342,0335,0337,0304,0332,0337,",
    "01242:0333,0200,0336,0330,0332,0210,0242,0211,0333,0331,0337,",
    "0243:0220,0336,0331,0332,0336,0321,0343,0332,0350,0334,0336,0342,0335,0335,0342,0337,0334,0334,0335,0304,0332,0330,0330,0337,0337,0333,",
    "01243:0333,0200,0336,0330,0332,0210,0243,0211,0333,0331,0337,",
    "0244:0220,0336,0331,0333,0336,0321,0343,0333,0350,0336,0335,0342,0334,0334,0342,0335,0337,0304,0333,0330,0330,0337,0337,0332,",
    "01244:0333,0200,0336,0330,0332,0210,0244,0211,0333,0331,0337,",
    "0245:0210,0332,0332,0362,0335,0203,0203,0203,0203,0334,0203,0363,0332,0332,0331,0211,",
    "01245:0333,0200,0336,0330,0332,0336,0245,0337,0333,0331,0337,",
    "0246:0210,0332,0332,0335,0306,0336,0330,0335,0335,0335,0321,0362,0203,0335,0335,0203,0364,0331,0350,0335,0337,0366,0333,0333,0333,0333,0334,0334,0334,0334,0367,0335,0336,0342,0334,0334,0342,0330,0330,0330,0330,0335,0335,0335,0304,0337,0211,",
    "01246:0333,0200,0336,0330,0332,0336,0246,",
    "0247:0330,0332,0336,0332,0336,0221,0333,0333,0333,0222,0333,0333,0333,0223,0333,0333,0333,0225,0333,0331,0331,0331,0332,0332,0332,0332,0332,0332,0332,0332,0332,0332,0332,0332,0333,0333,0226,0331,0331,0331,0333,0333,0333,0333,0333,0333,0333,0333,0333,0333,0333,0333,0333,0330,0333,0330,0330,0333,0330,0331,0332,0332,0332,0332,0332,0332,0332,0332,0332,0332,0332,0332,0227,0333,0333,0333,0230,0333,0331,0331,0331,0331,0332,0332,0332,0330,0332,0332,0332,0332,0332,0332,0333,0333,0231,0333,0333,0333,0232,0331,0333,0330,0333,0333,0233,0333,0333,0333,0234,0330,0330,0332,0330,0332,0332,0337,0337,",
    "01247:0333,0200,0336,0330,0332,0220,0336,0247,0337,0331,0333,0337,"
  ]
}</json>--><path    d = "M99,184 C117,184 117,112 99,112" fill = "none" stroke-width = "5" stroke = "#000000" /><path    d = "M99,112 C81,112 81,184 99,184" fill = "none" stroke-width = "5" stroke = "#000000" />    <line x1="99" y1="184" x2="243" y2="184" style="stroke:#000000;stroke-width:5" />
    <line x1="243" y1="184" x2="386" y2="184" style="stroke:#000000;stroke-width:5" />
    <line x1="386" y1="112" x2="243" y2="112" style="stroke:#000000;stroke-width:5" />
    <line x1="243" y1="112" x2="99" y2="112" style="stroke:#000000;stroke-width:5" />
    <line x1="99" y1="148" x2="63" y2="148" style="stroke:#000000;stroke-width:5" />
    <line x1="63" y1="148" x2="45" y2="148" style="stroke:#000000;stroke-width:5" />
<circle cx="41" cy = "148" r = "4.4807458740518875" stroke = "#000000" stroke-width = "5" fill = "none" />
<path    d = "M386,112 C404,112 404,184 386,184" fill = "none" stroke-width = "5" stroke = "#000000" />    <line x1="422" y1="148" x2="404" y2="148" style="stroke:#000000;stroke-width:5" />
    <line x1="404" y1="148" x2="399" y2="148" style="stroke:#000000;stroke-width:5" />
	<path d = "M422 148 L458 148 L458 184 " stroke = "#000000" stroke-width = "5" fill = "none" />    <line x1="440" y1="211" x2="476" y2="211" style="stroke:#000000;stroke-width:5" />
    <line x1="440" y1="229" x2="476" y2="229" style="stroke:#000000;stroke-width:5" />
    <line x1="458" y1="184" x2="458" y2="202" style="stroke:#000000;stroke-width:5" />
    <line x1="458" y1="202" x2="458" y2="211" style="stroke:#000000;stroke-width:5" />
    <line x1="458" y1="229" x2="458" y2="237" style="stroke:#000000;stroke-width:5" />
    <line x1="458" y1="237" x2="458" y2="255" style="stroke:#000000;stroke-width:5" />
    <circle cx="458" cy = "255" r = "4.4807458740518875" stroke = "#000000" stroke-width = "5" fill = "#000000" />
    <line x1="458" y1="255" x2="458" y2="291" style="stroke:#000000;stroke-width:5" />
    <line x1="440" y1="318" x2="476" y2="318" style="stroke:#000000;stroke-width:5" />
    <line x1="440" y1="336" x2="476" y2="336" style="stroke:#000000;stroke-width:5" />
    <line x1="458" y1="291" x2="458" y2="309" style="stroke:#000000;stroke-width:5" />
    <line x1="458" y1="309" x2="458" y2="318" style="stroke:#000000;stroke-width:5" />
    <line x1="458" y1="336" x2="458" y2="345" style="stroke:#000000;stroke-width:5" />
    <line x1="458" y1="345" x2="458" y2="363" style="stroke:#000000;stroke-width:5" />
    <line x1="458" y1="255" x2="493" y2="255" style="stroke:#000000;stroke-width:5" />
<path    d = "M493,255 C502,255 507,273 498,273" fill = "none" stroke-width = "5" stroke = "#000000" /><path    d = "M498,273 C489,273 502,255 511,255" fill = "none" stroke-width = "5" stroke = "#000000" /><path    d = "M511,255 C520,255 525,273 516,273" fill = "none" stroke-width = "5" stroke = "#000000" /><path    d = "M516,273 C507,273 520,255 529,255" fill = "none" stroke-width = "5" stroke = "#000000" /><path    d = "M529,255 C538,255 543,273 534,273" fill = "none" stroke-width = "5" stroke = "#000000" /><path    d = "M534,273 C525,273 538,255 547,255" fill = "none" stroke-width = "5" stroke = "#000000" /><path    d = "M547,255 C556,255 561,273 552,273" fill = "none" stroke-width = "5" stroke = "#000000" /><path    d = "M552,273 C543,273 556,255 565,255" fill = "none" stroke-width = "5" stroke = "#000000" />	<path d = "M565 255 L601 255 L601 291 " stroke = "#000000" stroke-width = "5" fill = "none" /><path    d = "M601,291 C601,300 583,305 583,296" fill = "none" stroke-width = "5" stroke = "#000000" /><path    d = "M583,296 C583,287 601,300 601,309" fill = "none" stroke-width = "5" stroke = "#000000" /><path    d = "M601,309 C601,318 583,323 583,314" fill = "none" stroke-width = "5" stroke = "#000000" /><path    d = "M583,314 C583,305 601,318 601,327" fill = "none" stroke-width = "5" stroke = "#000000" /><path    d = "M601,327 C601,336 583,341 583,332" fill = "none" stroke-width = "5" stroke = "#000000" /><path    d = "M583,332 C583,323 601,336 601,345" fill = "none" stroke-width = "5" stroke = "#000000" /><path    d = "M601,345 C601,354 583,358 583,349" fill = "none" stroke-width = "5" stroke = "#000000" /><path    d = "M583,349 C583,341 601,354 601,363" fill = "none" stroke-width = "5" stroke = "#000000" />    <line x1="623" y1="309" x2="561" y2="345" style="stroke:#000000;stroke-width:5" />
	<path d = "M561 345 L570 329 L579 345 L561 345 Z" stroke = "#000000" stroke-width = "5" fill = "#000000" />    <line x1="601" y1="363" x2="601" y2="399" style="stroke:#000000;stroke-width:5" />
    <line x1="601" y1="399" x2="601" y2="417" style="stroke:#000000;stroke-width:5" />
	<path d = "M583 417 L619 417 L601 435 L583 417 Z" stroke = "#000000" stroke-width = "5" fill = "none" />    <line x1="458" y1="399" x2="458" y2="417" style="stroke:#000000;stroke-width:5" />
	<path d = "M440 417 L476 417 L458 435 L440 417 Z" stroke = "#000000" stroke-width = "5" fill = "none" />    <line x1="458" y1="399" x2="458" y2="363" style="stroke:#000000;stroke-width:5" />
    <text x="171" y = "237" fill = "#000000" font-size = "35.8459669924151px" font-family = "Arial">L</text>
    <text x="476" y = "202" fill = "#000000" font-size = "35.8459669924151px" font-family = "Arial">C</text>
    <text x="511" y = "211" fill = "#000000" font-size = "17.92298349620755px" font-family = "Arial">IN</text>
    <text x="511" y = "318" fill = "#000000" font-size = "35.8459669924151px" font-family = "Arial">L</text>
    <text x="619" y = "354" fill = "#000000" font-size = "35.8459669924151px" font-family = "Arial">L</text>
    <text x="404" y = "354" fill = "#000000" font-size = "35.8459669924151px" font-family = "Arial">C</text>
    <text x="440" y = "363" fill = "#000000" font-size = "17.92298349620755px" font-family = "Arial">0</text>
    <text x="646" y = "363" fill = "#000000" font-size = "17.92298349620755px" font-family = "Arial">J</text>
    <text x="538" y = "327" fill = "#000000" font-size = "17.92298349620755px" font-family = "Arial">0</text>
</svg>